<?xml version="1.0" standalone="no"?>
<!DOCTYPE svg PUBLIC "-//W3C//DTD SVG 20010904//EN"
 "http://www.w3.org/TR/2001/REC-SVG-20010904/DTD/svg10.dtd">
<svg version="1.0" xmlns="http://www.w3.org/2000/svg"
 width="700.000000pt" height="700.000000pt" viewBox="0 0 700.000000 700.000000"
 preserveAspectRatio="xMidYMid meet">
<metadata>
Created by potrace 1.14, written by Peter Selinger 2001-2017
</metadata>
<g transform="translate(0.000000,700.000000) scale(0.100000,-0.100000)"
fill="#000000" stroke="none">
<path d="M3467 6564 c-1 -1 -72 -4 -157 -8 -85 -3 -168 -8 -185 -10 -16 -2
-57 -7 -90 -11 -33 -3 -71 -8 -85 -10 -142 -22 -245 -41 -350 -66 -1096 -257
-1977 -954 -2377 -1883 -54 -126 -133 -361 -147 -436 -2 -14 -11 -56 -20 -93
-9 -38 -19 -92 -22 -120 -3 -29 -7 -57 -9 -64 -19 -59 -27 -496 -12 -638 49
-449 208 -886 463 -1265 116 -172 245 -332 358 -441 27 -27 28 -31 22 -91 -35
-326 -134 -721 -277 -1098 -32 -85 -60 -166 -62 -180 -6 -32 15 -72 50 -100
24 -19 36 -21 85 -16 32 4 63 8 70 11 7 2 29 6 49 9 28 4 246 46 319 61 276
57 800 208 970 278 14 5 30 11 35 13 21 5 213 87 294 126 l85 40 65 -17 c70
-18 279 -59 346 -69 23 -4 50 -8 60 -10 20 -4 108 -14 180 -21 223 -21 612
-21 755 0 14 2 54 6 90 10 36 3 72 8 80 10 8 2 35 7 60 10 130 17 385 74 500
110 288 92 421 145 640 255 709 355 1255 925 1540 1606 39 94 115 317 124 366
2 13 9 41 14 63 6 22 14 54 16 70 3 17 8 41 11 55 24 109 38 280 39 460 1 177
-9 383 -19 400 -1 3 -6 25 -9 50 -13 94 -54 279 -81 360 -8 25 -21 65 -29 90
-26 84 -96 250 -147 353 -308 612 -815 1106 -1479 1438 -217 108 -400 179
-655 254 -170 50 -421 99 -610 120 -33 4 -71 9 -85 11 -32 5 -409 22 -413 18z
m-1117 -1863 l25 -1 0 -400 0 -400 401 0 402 0 0 -400 -1 -400 -401 0 -401 0
0 -399 c0 -348 -2 -400 -15 -403 -8 -2 -188 -3 -400 -3 l-385 1 -2 384 c-1
212 -2 393 -2 403 -1 16 -27 17 -401 17 l-400 0 0 400 0 400 400 0 c313 0 400
3 401 13 0 6 1 186 1 399 1 339 3 387 16 390 14 3 696 2 762 -1z m2782 -12
c69 -18 120 -45 169 -87 156 -138 168 -427 24 -575 -74 -76 -167 -117 -275
-123 -211 -10 -369 106 -418 306 -2 8 -3 53 -4 100 -1 179 88 305 261 371 53
20 183 24 243 8z m-752 -816 c125 -50 205 -149 235 -287 14 -71 12 -123 -10
-226 -6 -29 -65 -121 -98 -152 -129 -125 -361 -143 -515 -40 -195 129 -225
429 -62 616 33 37 128 91 186 106 59 14 211 5 264 -17z m1602 0 c152 -60 237
-185 244 -354 7 -175 -66 -303 -213 -376 -67 -33 -84 -37 -164 -40 -132 -3
-229 31 -308 109 -53 52 -95 129 -108 198 -11 60 -1 207 16 235 3 6 6 12 6 15
1 3 11 24 23 46 40 77 129 146 229 178 64 21 210 15 275 -11z m-802 -802 c144
-55 235 -184 244 -347 10 -165 -70 -316 -200 -380 -29 -14 -55 -26 -58 -26 -3
1 -20 -4 -38 -9 -57 -17 -178 -12 -240 10 -122 42 -202 124 -240 246 -53 172
4 370 132 456 19 13 37 27 40 30 5 6 87 34 125 42 49 11 182 -1 235 -22z"/>
</g>
</svg>
