<?xml version="1.0" encoding="utf-8"?>
<!-- Generator: Adobe Illustrator 19.2.0, SVG Export Plug-In . SVG Version: 6.00 Build 0)  -->
<svg version="1.1" id="Layer_1" xmlns="http://www.w3.org/2000/svg" xmlns:xlink="http://www.w3.org/1999/xlink" x="0px" y="0px"
	 viewBox="0 0 2418.7 1087.9" style="enable-background:new 0 0 2418.7 1087.9;" xml:space="preserve">
<style type="text/css">
	.st0{fill:#FFFFFF;}
</style>
<g>
	<path class="st0" d="M1816,283.2l-2.3,17.7c0,0,13.9,7.2,32.1,7.2c5.1,0,15.8-1.1,20.5-2.8c16.4-6,24.4-17.9,24.4-32.6
		c0-14.1-10.3-23.2-27.5-26.3l-12.4-2.1c-9.8-1.6-18-4-18-15.4c0-9.8,9.2-17.2,21.9-17.2c7.2,0,15.8,2.5,20.4,8.1l0.3,6.9h6.9
		l1.5-18c-9.8-3.8-19.2-5.1-28.7-5.1c-22.2,0-40.5,9-40.5,32.4c0,12.6,9,23.2,27.3,26.3l15,2.5c10.4,1.8,14.3,9.1,14.3,15.4
		c0,13.4-11.1,20-24.1,20c-8,0-19.9-4.5-24.7-11.3l-0.5-5.7L1816,283.2L1816,283.2z"/>
	<path class="st0" d="M1477.5,393c0.7,0.7,28.5-13.3,38.7-2.1c11.9,13-3.6,62.9-35.8,126.6c-31.2,61.7-59.2,112.6-65.8,132.2
		c-6.7,19.8,7.6,12.6,22.7,4.9c29.9-15.4,156.3-121.1,172.4-129.4c9-4.7-63.7,82.2-135.1,157.4c-81.9,86-160.9,181.9-274.3,181.9
		c-119,0-171.5-97.2-171.5-97.2s28.9,115,178.1,115c170.9,0,299.9-179.9,393.3-288.5c75.7-87.9,141.4-165.5,187.8-193
		s97.2-10.5,97.2-10.5c-72.3-44.8-162.2,20.3-234.6,84.6c-60,53.4-163.5,124-170.2,129.4c-8.8,7,110.3-200.8,75.9-230.8
		C1543.7,362.2,1471.8,387.6,1477.5,393"/>
	<path class="st0" d="M2219.3,211.7v-6.2h-28.4v6.2c6.1,0,9.3,1,7.6,4c-1.5,2.7-22.7,37.9-22.7,37.9s-18.7-32.7-20.8-36.3
		c-1.9-3.4-1.6-5.9,8.4-5.6v-6.2h-46.3v6.2c11-0.3,11.9,2.7,14.5,6.9s28.6,47.7,28.6,47.7v22.8c-0.1,10.6-0.8,11.6-13,11.3v6.2h47.7
		v-6.3c-12.4,0.4-13.1-0.6-13.1-11.1c0,0-0.1-26,0-27.5c0,0,23.4-39.7,25.4-42.9C2209.3,215.5,2211,211.7,2219.3,211.7z"/>
	<path class="st0" d="M1220,288.9c0,10.6-0.6,11.7-13,11.3v6.3h35.1v-6.3c-12.4,0.4-13-0.7-13-11.3v-60.3l70.8,79.8l11.1-3.3v-81.9
		c0-10.6,0.6-11.7,13-11.3v-6.3h-35.2v6.3c12.5-0.4,13,0.7,13,11.3v55.7l-3.5-3.7l-60.1-69.3l-31.3-0.3v6.3c12.4-0.4,13,0.7,13,11.3
		L1220,288.9L1220,288.9z"/>
	<path class="st0" d="M1366.8,288.9c-0.2,10.6-0.8,11.7-13,11.4v6.2h47.7v-6.3c-12.4,0.4-13-0.7-13-11.3v-65.8
		c0-10.6,0.5-11.5,13-11.4v-6.2h-47.7v6.2c12.2-0.3,12.9,0.9,13,11.4V288.9z"/>
	<path class="st0" d="M1470,225.1c-1.4-3.2-3.6-7.1-3-10.6c0.5-2.7,6.5-2.8,11.8-2.8v-6.2h-49.5v6.2c4.8,0,12.1,2.5,15.8,10.6
		l36.8,84.3h11.4c0,0,25.3-58.6,38.1-88c3.1-6.5,4.6-6.9,11.8-6.9v-6.2h-35.4v6.2c9.3,0,12.7,1.1,12.7,4c0,1.5-1.3,4.4-2.3,7.6
		l-24.2,58.6L1470,225.1z"/>
	<path class="st0" d="M1582.3,291.4c0,6.5-2.3,8.5-11,9v6.2h81.3l1.5-22.9h-6l-3,11.9c0,0-13.7,1.8-41.2,1.8v-39.6h17.7
		c2.8,0,7.6,0.3,8.1,3.6c0.7,3,0.1,7.3,0.1,7.3h6.4l2.4-28.2h-6.1c-0.3,3.4-0.7,4.7-1.7,7.2c-0.7,2.7-2.8,2.7-5,2.7h-21.9v-31.3
		c0-1.8,0.4-3.7,1-5.3c4.4,0,24.1-0.2,29.6,0.3c3.3,0.3,6.9,0.9,7,3.2c0.3,3.2,0.6,7.5,0.6,7.5h5.8l1.5-13.8l0.6-5.4h-81.1v6.2
		c11.7,0.6,12.9,1.6,13.2,10.7v68.9H1582.3z"/>
	<path class="st0" d="M1696.5,288.9c-0.2,10.6-0.8,11.7-13.1,11.4v6.2h47.7v-6.3c-12.4,0.4-13.1-0.7-13.1-11.3v-71.6
		c0-1,0.6-3.4,0.6-3.4c3.8-0.9,4.8-1,9.2-1c12,0,21.1,9.4,21.1,21.5c0,13.4-4.2,21.4-22.1,23.1l-0.4,2.7l32.1,46.4h28.7v-6.2
		c-3.9-0.4-8.4-3.5-10.7-6.6l-27.5-35c16.1-3.1,22.3-14.2,21.6-28.3c-0.8-18.8-19.9-25-36.9-25h-50.5v6.2
		c12.3-0.3,12.9,0.9,13.1,11.4v65.8H1696.5z"/>
	<path class="st0" d="M1937.1,288.9c-0.2,10.6-0.8,11.7-13,11.4v6.2h47.7v-6.3c-12.4,0.4-13-0.7-13-11.3v-65.8
		c0-10.6,0.6-11.7,13-11.3v-6.3h-47.7v6.2c12.3-0.3,12.8,0.9,13,11.4V288.9z"/>
	<path class="st0" d="M2058.8,215.4h21.6c8.4,0.2,6.9,1,8,8.4c0.3,2,0.3,1.7,0.3,3.8h6c0.8-8.8,2-22,2-22h-96.3c0,0,0.8,14.8,0.5,22
		h6.1c0.3-3.7,0.5-4.9,0.8-7.5c1.9-3.2,3.2-4.3,6.9-4.7h22.5V289c-0.2,10.6-0.8,11.7-13,11.4v6.2h47.7v-6.3
		c-12.4,0.4-13-0.7-13-11.3v-73.6H2058.8z"/>
	<path class="st0" d="M1064.7,211.5v-6h46.7v6c-5.3,0-8.7,0.5-10.1,1.4c-0.7,0.4-1.2,1.3-1.5,2.5c-0.7,3-0.9,44.7-0.9,44.7
		c0,8.7,0.1,14.1,0.3,16.2c0.5,4.5,1.6,8.1,3.5,10.9s4.7,5,8.6,6.7s8.8,2.6,14.7,2.6c6.8,0,12.3-1.2,16.4-3.4c4.1-2.3,7-5.2,8.7-8.9
		c1.7-3.6,2.6-10.5,2.6-20.7c0,0,0-35-0.1-37.7c-0.2-6-0.5-9.7-1-10.9c-0.4-0.8-0.9-1.4-1.7-1.7c-1.6-0.8-5.2-1.3-10.7-1.4v-6h34.3
		v6c-4.6,0-7.5,0.3-8.6,1.1c-0.6,0.4-1.1,1.1-1.5,2.2s-0.8,5.1-1.1,14.5c-0.2,8.6-0.5,37.2-0.5,37.2c0,4.3-0.3,8.7-1,13.3
		c-0.6,4.6-1.9,8.5-3.9,11.8c-1.9,3.3-4.7,6.2-8.3,8.8c-3.5,2.6-7.8,4.6-12.6,5.9c-4.9,1.3-10.5,2-16.9,2c-7.5,0-14.5-1-21-2.9
		c-4.7-1.4-8.6-3.4-11.6-5.8s-5.3-5.1-6.9-8.1s-2.5-5.9-2.9-8.7c-0.2-1.7-0.4-6.4-0.4-13.9c0,0-0.1-44.7-0.3-50.1
		c-0.1-2.1-0.4-3.7-0.9-4.6c-0.2-0.5-0.9-1.1-1.9-1.8L1064.7,211.5z"/>
	<path class="st0" d="M1309.4,473.4c-0.6-0.1,27.2-81.8,51.6-87.2c25.9-5.7,14.3,26.1,8.9,35.5c-3.7,6.5-1.2,7.1,4.2,2.3
		c9.2-8.1,30.7-33.3,18.9-45.6c-3.7-3.9-10.6-6.3-20.8-6.3c-26.9,0-63.1,18.4-98.6,99.2c0,0-34.8-0.6-65.3,4.7
		c-0.2-21.6-12.4-35.7-35.4-35.7c-38.4,0-92,39-119.8,87.1s-19.2,87.1,19.1,87.1c38.4,0,92-39,119.8-87.1c5.7-9.8,9.8-19.2,12.5-28
		c9.6-1.3,35.2-4,58-2.4c1.8,0.1-25.3,72.1-43.4,107.6c-14.5,28.5-58.6,82.1-117.5,55.5c-12.1-5.4-11.2,2,7.5,8.3
		c25.5,8.6,72.7,15.7,121.6-43.5c29.2-35.4,68.9-126.1,68.9-126.1s86.7,7,101.7-62.6C1401.1,436.2,1386.7,483.9,1309.4,473.4z
		 M1089.6,592.9c-21.7,0-24.6-29.3-6.5-65.5s50.3-65.5,72-65.5c13.7,0,19.9,11.7,18.1,29.5c-14.2,8.9-27.6,19.4-27.6,19.4
		c-1.5,1.2-1.2,1.8,0.6,1.3l23.9-5.8c-2,6.6-4.7,13.7-8.4,21C1143.5,563.6,1111.3,592.9,1089.6,592.9z"/>
	<path class="st0" d="M2274.5,690.2c0,0-26.3,19.3-61,14.7c-41.7-5.5-99-63-112.6-75.9c-5.5-5.3,91.7-27.3,112.2-72.4
		c12.2-26.9-16.1-34.6-16.1-34.6c-11.3,55.6-66.5,75.2-113.3,98.6c0,0-19.6-6.6-40.9,7c-8.8,5.6,81.1-192.8,94.7-218.9
		c0.7-1.4-45.3,14.7-46.8,16.8c-3.4,4.8,1.8,2,0.4,7.7c-4.5,17.4-46.2,102.1-46.2,102.1c-28,0-112.2,36-123.1,42.3
		c-11,6.3,16.4-37.4,5.8-44.1c-10.7-6.7-22.3-4.9-47.1,1.4c-20.7,5.2-50.1,21.1-64.4,28.3c-1.4-22.3-15-36.5-39.5-36.5
		c-42.9,0-102.9,43.6-134,97.5c-31.1,53.8-21.5,97.5,21.4,97.5s102.9-43.6,134-97.5c9-15.6,14.6-30.3,16.9-43.4
		c22.5-14.5,73.9-35.8,77.9-29c6.3,10.5-65.6,143.4-78.8,168.6c-0.2,0.4,0.5,0.8,2,0.3c16.5-5.1,36.7-12.7,40.6-20.9
		c18.4-38.4,83-144.8,145.8-133.3c8.6,1.6,35.2-15.5,33.3-10.1c-4.7,13.3-61.5,130.7-80.6,162.9c-4.4,7.4,36.5-9.6,41.5-19.2
		c18.3-35,42.5-52.9,56-52.9c15.3,0,78.9,77.3,147.6,77.3C2251.7,724.5,2277.7,691.6,2274.5,690.2z M1683.6,697.6
		c-24.2,0-27.5-32.8-7.3-73.3s56.2-73.3,80.5-73.3c16.8,0,23.5,15.8,19.3,39c-12.4,11.1-23.4,22-23.4,22c-1.3,1.3-1.1,1.7,0.6,0.8
		l19.7-10.2c-2.1,6.8-5.1,14.1-8.9,21.7C1743.9,664.7,1707.9,697.6,1683.6,697.6z"/>
</g>
<g>
	<path class="st0" d="M601.7,770.4c-0.8-2.4-1.6-3.5-3.4-4.4c-2.4-1.2-7.2-0.3-7.7-0.2c0,0-9.9,3.2-12.6,4.1c-0.2-0.6-0.4-1.3-0.6-2
		c-0.1-0.4-0.2-0.7-0.4-1.1c3-1,13-4.3,13-4.3c0.4-0.2,4.9-2.2,6.1-4.6c0.5-0.9,0.7-1.8,0.7-2.7c0-0.8-0.2-1.7-0.5-2.8
		c-2.5-7.6-7.7-14.3-15.5-20s-15.8-8.6-23.8-8.6c-2.5,0-3.8,0.5-5.2,1.9c-1.9,1.9-2.5,6.8-2.5,7.2c0,0,0,10.7,0,13.2
		c-0.6,0-1.2,0-1.9,0c-0.6,0-1.2,0-1.9,0.1c0-2.8,0-13.2,0-13.2c0-0.5-0.6-5.3-2.5-7.2c-1.4-1.4-2.7-1.9-5.2-1.9
		c-8,0-16,2.9-23.8,8.6c-7.8,5.7-13,12.4-15.5,20c-0.4,1.1-0.5,2-0.5,2.8c0,0.9,0.2,1.8,0.7,2.7c1.2,2.4,5.7,4.5,6.1,4.6
		c0,0,10.6,3.5,13,4.2c-0.1,0.4-0.3,0.7-0.4,1.1c-0.2,0.6-0.4,1.3-0.6,1.9c-3.4-1.1-12.6-4.1-12.6-4.1c-0.4-0.1-5.3-1.1-7.6,0.2
		c-1.8,0.9-2.6,2-3.4,4.4c-2.5,7.6-2.2,16.1,0.8,25.3s7.8,16.2,14.2,20.9c2,1.5,3.3,1.9,5.3,1.6c2.6-0.4,6-4,6.3-4.4
		c0,0,6.5-8.9,8.1-11.2c0.3,0.2,0.6,0.5,0.9,0.7c0.4,0.3,0.9,0.6,1.3,0.9c-1.9,2.6-8,11-8,11.1c-0.2,0.3-2.3,4-2.3,6.6
		c0,0.2,0,0.5,0.1,0.7c0.3,2,1.1,3.1,3.1,4.6c6.5,4.7,14.6,7,24.3,7s17.8-2.4,24.3-7c2-1.4,2.8-2.6,3.1-4.6c0-0.2,0-0.4,0-0.7
		c0-2.6-2-6.3-2.3-6.6c0,0-6-8.3-8-11c0.5-0.3,0.9-0.6,1.4-0.9c0.3-0.2,0.6-0.5,0.9-0.7c1.9,2.6,8.1,11.2,8.1,11.2
		c0.3,0.4,3.6,4,6.3,4.4c2,0.3,3.3-0.1,5.3-1.6c6.4-4.7,11.2-11.7,14.2-20.9C603.8,786.4,604.1,777.9,601.7,770.4z M552.5,739.9
		c0-0.4,0.7-4,2-5.8c3.6-4.9,8.4-1.5,12.7,1.4c3.2,2.2,6.3,4.4,8.6,3.2l1-0.5l-0.2,1.2c0,0.2-0.1,0.3-0.1,0.5c0,2.4,2.8,4.5,5.7,6.7
		c3.1,2.4,6.5,5,6.5,8.2c0,1.1-0.4,2.2-1.3,3.4c-1.3,1.8-4.6,3.6-4.9,3.7c0,0-5.1,1.7-6.8,2.2c-1.7-3.4-3.9-6.1-6.6-8.1
		c-1.1-0.8-1.8-1-2.9-0.8c-1.3,0.2-3.2,2.1-3.5,2.4c0,0-3.3,4.6-6.3,8.7c-0.3-0.2-0.6-0.4-0.9-0.6c3-4.1,6.3-8.7,6.3-8.7
		c0.2-0.4,1.3-2.4,1.3-3.7c0-0.1,0-0.2,0-0.4c-0.2-1.1-0.6-1.7-1.7-2.5c-2.6-1.8-5.6-3.1-9-3.7C552.5,744.8,552.5,739.9,552.5,739.9
		z M562.4,776.8c-0.3-3.5-1.8-6.6-4.1-9c1.6-2.2,3.6-5,3.6-5c0.1-0.2,1.4-1.3,2.3-1.6c2.2-0.7,3,1.1,4.1,4.2
		c0.7,1.9,1.4,3.9,2.8,4.6c-0.2,0.5-0.4,0.9-0.4,1.5c0,1.2,0.4,2.5,0.8,3.8c0.4,1.5,0.8,2.7,0.8,3.6c0,1.1-0.4,1.8-1.6,2.2
		c-0.9,0.3-2.6,0.1-2.9,0.1c0,0-3.1-1-5.5-1.8c0-0.4,0.1-0.8,0.1-1.2l0,0l0,0C562.5,777.7,562.5,777.3,562.4,776.8z M552.7,753.9
		c3.3,0.1,5.3,0.3,5.3,2.6c0,0.9-0.7,2.5-0.8,2.7c0,0-2,2.9-3.6,5.1c-1.8-0.8-3.7-1.2-5.8-1.3c-0.1,0-0.1,0-0.2,0l0,0
		c-2.1,0-4.1,0.4-5.9,1.2c-1.6-2.3-3.7-5.1-3.7-5.1c-0.1-0.2-0.8-1.7-0.8-2.7c0-2.3,2-2.5,5.3-2.6c2-0.1,4.1-0.1,5.2-1.2
		C548.6,753.8,550.7,753.9,552.7,753.9z M512.4,761.8c-0.3-0.1-3.6-1.9-4.9-3.7c-3.5-4.9,1.1-8.5,5.2-11.6c3.1-2.4,6.1-4.7,5.7-7.2
		l-0.2-1.2l1,0.5c2.3,1.2,5.4-0.9,8.6-3.2c4.3-2.9,9.1-6.3,12.6-1.4c1.3,1.8,2,5.3,2,5.7c0,0,0,4.8,0,6.8c-3.4,0.6-6.5,1.8-9,3.7
		c-1.1,0.8-1.5,1.4-1.7,2.5c0,0.1,0,0.2,0,0.4c0,1.4,1,3.4,1.3,3.7c0,0,3.4,4.7,6.3,8.7c-0.3,0.2-0.6,0.4-1,0.7
		c-3-4.1-6.3-8.7-6.3-8.7c-0.3-0.4-2.2-2.2-3.5-2.4c-1.1-0.2-1.8,0-2.9,0.8c-2.7,2-4.9,4.7-6.6,8.1
		C517.2,763.4,512.4,761.8,512.4,761.8z M532.5,779.4c-2.4,0.8-5.5,1.8-5.5,1.8c-0.2,0-1.9,0.2-2.8-0.1c-1.2-0.4-1.6-1.1-1.6-2.2
		c0-0.9,0.3-2.1,0.8-3.6c0.4-1.3,0.8-2.6,0.8-3.8c0-0.6-0.1-1-0.4-1.5c1.4-0.7,2.1-2.7,2.8-4.6c1.1-3.1,1.9-4.9,4.1-4.2
		c0.9,0.3,2.2,1.4,2.3,1.6c0,0,2,2.8,3.6,5c-2,2.1-3.4,4.7-3.9,7.7c-0.2,0.9-0.2,1.7-0.2,2.6C532.5,778.5,532.5,778.9,532.5,779.4z
		 M521.3,806.4c-0.2,0.3-2.9,2.8-5,3.5c-5.7,1.9-7.7-3.7-9.4-8.6c-1.3-3.7-2.6-7.3-5.1-7.6l-1.1-0.2l0.8-0.8
		c1.9-1.8,0.8-5.4-0.3-9.2c-1.5-5-3.2-10.6,2.6-12.5c2.1-0.7,5.8-0.2,6.1-0.1c0,0,4.5,1.4,6.6,2.1c-0.5,3.4-0.2,6.5,0.7,9.4
		c0.4,1.3,0.9,1.9,1.8,2.4c1.2,0.6,3.8,0.2,4.3,0.1c0,0,5.2-1.7,9.8-3.2c0.1,0.3,0.2,0.7,0.3,1c-4.7,1.5-9.8,3.2-9.8,3.2
		c-0.5,0.2-2.8,1.4-3.4,2.6c-0.5,1-0.5,1.7-0.1,3c1,3.2,2.9,6.1,5.6,8.7C524.3,802.2,521.3,806.5,521.3,806.4z M529.3,793.8
		c-1.9-1.5-3.2-2.6-3.2-3.8c0-0.4,0.2-0.9,0.5-1.4c0.6-0.8,2.1-1.6,2.3-1.7c0,0,3-1,5.3-1.8c2.1,4,5.9,6.9,10.4,7.8
		c0,2.4-0.2,5.4-0.2,5.4c0,0.2-0.4,1.9-0.9,2.7c-1.4,1.9-3.1,0.9-5.8-1c-1.7-1.1-3.4-2.3-4.9-2C532.6,796.3,531,795,529.3,793.8z
		 M566.1,811.7c0.2,0.3,1.8,3.7,1.8,5.9c0,6-5.9,6.2-11.1,6.3c-3.9,0.1-7.7,0.2-8.8,2.5l-0.5,1l-0.5-1c-1.2-2.3-4.9-2.4-8.8-2.5
		c-5.2-0.1-11-0.3-11-6.3c0-2.2,1.6-5.6,1.8-5.9c0,0,3.2-4.4,4.3-6c3.2,1.6,6.3,2.4,9.5,2.4c1.4,0,2.1-0.2,2.8-1c1-1,1.4-3.6,1.4-4
		c0,0,0-5.3,0-10c0.2,0,0.4,0,0.6,0l0,0h0.1c0.2,0,0.3,0,0.5,0c0,4.7,0,10,0,10c0,0.5,0.4,3.1,1.4,4c0.8,0.8,1.5,1,2.8,1
		c3.2,0,6.3-0.8,9.5-2.4C563.2,807.8,566.1,811.7,566.1,811.7z M565.6,793.8c-1.6,1.2-3.2,2.5-3.4,4.1c-1.6-0.3-3.3,0.9-5,2
		c-2.7,1.9-4.4,2.9-5.8,1c-0.6-0.8-0.9-2.5-1-2.7c0,0,0-3,0-5.4c4.5-0.9,8.2-3.8,10.3-7.7c2.4,0.8,5.3,1.8,5.3,1.8
		c0.2,0.1,1.7,1,2.3,1.7c0.3,0.5,0.5,0.9,0.5,1.4C568.9,791.2,567.6,792.3,565.6,793.8z M593.6,792.8l0.8,0.8l-1.2,0.2
		c-2.6,0.4-3.8,3.9-5.1,7.6c-1.7,4.9-3.7,10.4-9.4,8.6c-2.1-0.7-4.9-3.2-5-3.5c0,0-3.3-4.5-4.4-6c2.7-2.6,4.6-5.5,5.6-8.7
		c0.2-0.6,0.3-1.1,0.3-1.6s-0.1-0.9-0.4-1.5c-0.6-1.2-3-2.4-3.4-2.6c0,0-5.1-1.7-9.7-3.2c0.1-0.3,0.2-0.7,0.3-1
		c4.6,1.5,9.8,3.2,9.8,3.2c0.5,0.1,3.1,0.5,4.3-0.1c1-0.5,1.4-1.1,1.8-2.4c0.9-2.9,1.2-6.1,0.7-9.4c2-0.7,6.5-2.1,6.5-2.1
		c0.3-0.1,4-0.6,6.1,0.1c5.7,1.9,4.1,7.5,2.6,12.5C592.8,787.4,591.7,790.9,593.6,792.8z"/>
	<path class="st0" d="M526.2,254.8"/>
	<path class="st0" d="M672.5,783.3L672.5,783.3 M428.7,789.9c29.4,37.4,68.3,70.5,116,98.3l3.4,2l3.4-2
		c47.7-27.8,86.6-60.9,116-98.3l8.3-11.1c22.2-30.9,38.5-65.3,48.8-102.5l0,0l0.3-1.4c1-3.6,1.9-7.3,2.8-11l0,0l0,0l0.8-3.5l0,0
		c2.1-9.6,3.8-18.9,5.2-28c0,0.2,0,0.3,0,0.5c3.3,31.4,14,46,33.6,46c14.6,0,23.4-5.6,27.1-17.2c0.3-0.9,0.7-2.2,1.3-3.8
		c2.8-8.1,7.4-21.8,7.4-29.4c0-0.6,0-1.2,0-1.8c0.1-6.6,0.1-14-7.7-16.4c-0.3-0.3-0.7-0.6-1-0.8c2.7-1.6,4.8-3,6.1-4.2
		c3.4-3.1,7-11.2,11.2-20.6c2.4-5.3,4.8-10.8,7.2-15.2c0.1-0.2,0.3-0.6,0.6-1c17.3-31.2,22.5-59,14.6-78.3c0-0.1-0.1-0.2-0.1-0.3
		c-0.1-0.2-0.3-0.4-0.4-0.6c-4.7-13.7-9.9-24-30.4-38.6c-8.8-6.2-17.2-11.3-23.9-15.4c-6.9-4.2-12.7-7.7-16.2-10.8
		c8.2,1,16.1,3.3,23.9,5.6c10.6,3.1,21.6,6.3,33.4,6.3c22.5,0,33.9-7.8,43.1-14c5.7-3.9,10.1-6.9,15.7-6.9c0.7,0,1.3-0.5,1.4-1.2
		c0.1-0.7-0.2-1.4-0.9-1.6c-2.6-1-5.4-3.4-8.5-6.1c-5.8-5-13.5-11.5-26.1-14.7c0-0.2-0.1-0.4-0.1-0.6c-1.8-8.1-6-16.1-12.3-23.7
		c5.8,1.4,13.1,2.9,19.2,2.9c9.9,0,16.5-3.2,22.9-6.3c1.7-0.8,3.4-1.6,5.2-2.4c1.1-0.5,1.8-1.6,1.7-2.7c-0.1-1.2-0.8-2.2-1.9-2.6
		c-5.1-1.7-11.2-7.4-17-12.9c-6.3-5.9-12.2-11.4-18-13.5c-3.7-1.3-7.5-1.9-11.9-1.9c-2,0-3.9,0.1-5.7,0.2c-1.7,0.1-3.4,0.2-5,0.2
		c-2,0-3.7-0.2-5.2-0.5c-0.9-0.2-1.2-0.4-1.2-0.4c-0.1-0.1-0.2-0.4-0.2-0.7c-1-3.2-2.6-5.8-11.6-7.1c33.6-10.7,56.9-23,71.1-37.3
		c16.2-16.5,18.3-33.9,18.4-47.2c0-0.4,0-0.9,0-1.3v-0.4c0,0,0-0.1,0-0.2c-0.3-3.8-1.2-7.6-2.7-11.2c-3.2-16.8-11.5-32.6-17.3-43.6
		c-2.6-4.9-4.8-9.1-5.7-11.8c-0.7-2.1-1.5-4.4-2.2-6.7c-3.2-9.6-6.4-19.4-10.4-25.2c-3-4.4-9.9-9.8-16-14.6c-3.8-3-7.4-5.9-9.5-8
		c-0.5-0.5-1.2-0.6-1.8-0.2c-0.6,0.3-0.9,1-0.7,1.7c0.7,2.4,0,4.4-0.9,6.6c-0.7,1.9-1.5,3.8-1.5,6.1c0,2.6,1.9,5.6,3.7,8.4
		c0.9,1.4,2.4,3.7,2.5,4.6c-0.7-0.1-2.4-1.6-3.8-2.7c-3.3-2.7-7.9-6.5-13.6-7.2c-1.2-0.1-2.3-0.3-3.4-0.4c2.7-4.6,4-10,4-14.2
		c0-4.5,1-7.3,2.1-10.6l0.4-1.3c0.4-1.2-0.1-2.6-1.2-3.3c-1.1-0.7-2.5-0.6-3.5,0.3c0,0-0.4,0.4-2.2,0.4c-1.5,0-3.4-0.3-5.3-0.5
		c-2.2-0.3-4.4-0.6-6.5-0.6c-4.5,0-13.7,2.8-19.8,9c-0.1,0.1-0.1,0.1-0.1,0.2c0,0,0,0-0.1,0.1c-3.5,3.6-4.1,5.4-4.1,9.9
		c0,8.8,3.5,15.5,8.2,24.9c2.4,4.6,5.1,9.9,7.8,16.4c8,18.8,17.6,21.3,49.2,29.7c2.3,0.6,4.7,1.2,7.3,1.9c1.9,0.5,3.8,1.1,5.6,1.8
		c1.2,14.4-4.1,31-13.9,43.3c-16.4,20.6-41.2,31.3-65.3,41.7c-1.2,0.5-2.4,1-3.6,1.5l11.5-10.6c6.5-6.1,7.8-12.6,8.8-17.8
		c0.7-3.7,1.3-6.6,3.4-8.5c6.8-6.3,12.8-17.7,15.5-25.7c1.9-5.6-0.6-15.6-2.9-24.5c-1-4-2.1-8.2-2.1-9.9c0-1.1-0.7-2.1-1.7-2.6
		s-2.2-0.2-3.1,0.5c-1.3,1.2-3.7,2.4-6.6,3.8c-6.2,3-14.6,7.1-20.5,15.9c-1.6-6.6-5.4-12.8-11.3-18.3c-6.3-5.8-16.7-9.7-25.8-13.2
		c-6.2-2.3-12.1-4.6-14.4-6.6c-0.8-0.8-2-1-3.1-0.5c-1,0.5-1.7,1.5-1.7,2.6c0,2.2-0.8,6.7-1.6,11.5c-1.2,7.1-2.6,15.2-2.6,21.5
		c0,3.3,1.3,7,4.3,12.4c0.1,0.2,0.2,0.3,0.3,0.5c1.7,1.9,3.6,4.2,5.6,6.9c4.7,7.8,9.6,16.4,9.6,24.3c0,26.5-20.9,40-41.7,41.7
		c-2.2,0.2-4.4,0.3-6.5,0.3c-22.4,0-33.1-10-36-13.4c0.5-3-0.1-6.2-1.7-8.7c-1.6-2.5-4.1-4.3-7-4.9h-0.2l7.5-33.5l4.8-20.5
		c0.2-0.7,0-1.4-0.4-2s-1-1-1.7-1.1c-5.5-0.8-11.1-1.8-16.5-2.7c-9.8-1.7-19.9-3.5-30.1-4.2c-0.3,0-0.6,0-0.8,0.1l0,0l-15.3,3.1
		l-1.3,18.5c-3.8-0.2-7.6-0.4-11.4-0.5l1-23.6c0-0.7-0.2-1.3-0.7-1.8s-1.1-0.8-1.8-0.8c-8-0.3-16.1-0.4-24-0.4s-16,0.1-24,0.4
		c-0.7,0-1.3,0.3-1.8,0.8s-0.7,1.1-0.7,1.8l1,23.6c-3.6,0.1-7.3,0.3-10.9,0.5l-1.3-18.5l-15.8-3.1l0,0c-0.3-0.1-0.5-0.1-0.8-0.1
		c-10.1,0.8-20.3,2.5-30.1,4.2c-5.4,0.9-11.1,1.9-16.5,2.7c-0.7,0.1-1.3,0.5-1.7,1.1s-0.5,1.3-0.4,2l4.8,20.4l7.5,33.5h-0.1
		c-2.9,0.6-5.3,2.3-6.9,4.9c-1.8,2.8-2.3,6.3-1.5,9.6c1.4,5.7,6.1,9.9,11.3,9.9c0.7,0,1.3-0.1,1.9-0.2l2.4-0.4
		c-1.3,0.8-2.7,1.8-4.3,2.8c-5.8,1.6-13.3,2.9-22.9,2.9c-26.9,0-46.5-25.5-46.5-36.3c0-5,0.8-9.7,1.7-14.6c1.1-6.1,2.2-13,2.2-22.1
		c0-7.1-1.7-12.2-3.3-16.8c-2.2-6.3-4-11.8-1-21.3c0.2-0.6,0-1.3-0.6-1.7s-1.3-0.3-1.8,0.2c-6.9,6.4-8.1,7.5-20.4,12
		c-11.6,4.2-22.9,15.5-24.1,28c-2.4-3.1-5.5-5.8-8.1-7.4c-5.8-3.5-11.5-4-16.5-4.5c-4.3-0.4-8.1-0.8-11.4-2.8
		c-0.6-0.4-1.5-0.2-1.9,0.4c-0.5,0.6-0.4,1.4,0.2,2c3.4,3.2,3.4,20,3.4,26.3c0,7.4,9.5,15.9,15.9,21.6c0.9,0.8,1.7,1.6,2.5,2.2
		c1.2,1.1,2.3,2.8,3.7,4.9c4,6.2,9.9,15.1,27.2,23.7c-34.8-3.2-84.5-27.7-98.7-71c-1-3.2-0.7-6,0.9-8.3c2.7-3.8,9-6.1,16.4-6.1
		c8.5,0,17.1,3.3,17.1,9.6c0,0.6,0.3,1.1,0.9,1.3c0.5,0.2,1.2,0.1,1.6-0.3c5.7-5.3,6.6-13.5,4.5-18.8c-0.7-1.9-1.8-3.4-3.1-4.5
		c3.5-1,6.9-2.8,9.8-4.7c0.7-0.3,7.2-3.6,7.6-3.8c7.7-5.2,18.5-18.3,18.5-27.9c0-1.4,1.4-3.7,3-6.2c3-4.9,7.1-11.5,7.1-20.9
		c0-7.9-5.5-22.6-18.7-22.6c-6.2,0-9.3,1.7-12,3.1c-2.5,1.4-4.7,2.6-10.1,2.6c-1.2,0-2.3,0.8-2.7,1.9c-0.4,1.1,0,2.4,0.9,3.2
		c7.2,5.7,11.8,12.3,14,20.3c-5,3.9-9.1,5.9-12.1,5.9c-6.7,0-24.4,0-39.8,9.5c-15.5,9.5-24.5,36.2-29.3,50.5l-0.1,0.2
		c-2.4,7-4.7,10.7-6.8,14c-2.2,3.4-4.1,6.4-5.2,11.8c-3.5,16.2-1,49.5,30.7,71.5c24.9,17.3,54,20.9,74.1,20.9c3,0,6-0.1,9-0.2
		c-8.9,4.3-22.1,10.1-33.5,14c-5.2,1.8-11.7,3.7-17.9,5.4c-11.3,3.2-22.9,6.5-28.7,10.1c-5.9,3.7-13.2,12.1-18.9,18.8
		c-3.1,3.6-5.7,6.7-7.6,8.4c-0.4,0.4-0.6,1.1-0.4,1.6c0.2,0.6,0.8,0.9,1.4,0.9c9.6,0,12.8,0,21,1.7c2.2,0.5,3.1,1,4,1.5
		s1.9,1.1,3.6,1.1c1.6,0,3.9-0.5,8-1.7c-4.3,4.3-9.2,11.3-10.3,21.7h-9.5c-9,0-15.8,4.6-21.9,8.7c-5.2,3.5-10.2,6.9-15.8,6.9
		c-1.4,0-2.6,1.1-2.8,2.5c-0.2,1.4,0.7,2.7,2.1,3.1c4,1.1,10.4,5.2,17.1,9.5c12.4,8.1,27.8,18.1,41.9,18.1c13.3,0,19.2-2.4,23.5-4.2
		c2.6-1.1,4.5-1.8,7.4-1.8c2.3,0,5.2,0.5,8.3,1c4.1,0.7,8.7,1.4,13.4,1.4c0.6,0,1.2,0,1.8,0c-26.2,17-50.6,35.6-59.8,57.6
		c-8.9,21.5,0.9,46,6.2,59.2c1,2.5,1.9,4.7,2.4,6.2c2.8,9.1,2.8,25.6,2.8,31.8c0,10.7,8.8,22.7,17.6,33.1
		c-4.2,6.6-5.6,15.9-4.2,29.2c1.2,11.8,4.2,18.6,11.8,26.4c0.8,0.9,1.7,1.8,2.5,2.5l0,0l0,0c1.2,1.1,2.5,2.1,3.7,2.9
		c0.1,0.1,0.2,0.1,0.3,0.2c5.7,3.4,12.3,5.3,19,5.3l0,0c2.2,0,4.4-0.2,6.7-0.6c4.1-0.8,7.8-2.2,11.2-4c0,0,0.1,0,0.1-0.1
		c0.1-0.1,0.2-0.1,0.3-0.2l0,0c0,0,0,0,0.1,0c2.4-1.5,4.4-3.3,5.9-5.2c10.1-10.4,14.9-25.3,14.9-48c0-0.9,0-1.7-0.1-2.6
		c1.3,8.6,2.9,17.4,4.9,26.4l0,0l0.8,3.5l0,0l0,0c0.9,3.7,1.8,7.3,2.8,11l0.3,1.3l0,0c10.3,37.2,26.6,71.6,48.8,102.5L428.7,789.9z
		 M808.2,115.4c0,3.8-1.4,9.2-4.5,13.2c-11.9-1.7-17.4-5.3-20.1-9.2c-1-2.5-0.9-5.1-0.8-7.2c0-0.1,0-0.1,0-0.2
		c4.7-4.3,11.6-6.5,15-6.5c1.7,0,3.8,0.3,5.8,0.5c2,0.3,4,0.5,5.9,0.6C808.7,109,808.2,111.7,808.2,115.4z M309.3,106.9
		c2.6-0.6,4.4-1.6,6.1-2.5c2.4-1.3,4.5-2.4,9.3-2.4c9.1,0,13.1,11.2,13.1,16.9c0,7.8-3.5,13.4-6.3,17.9c-2.1,3.3-3.8,6.2-3.8,9.2
		c0,3.2-3.3,10.9-9.3,17.4c2.8-10.5,5.7-24,2.2-37.2C318.5,118.9,314.8,112.4,309.3,106.9z M308.1,177c-0.1,0.1-0.3,0.2-0.5,0.3l0,0
		C307.7,177.2,307.9,177.1,308.1,177z M667.8,431.2C667.8,431.2,667.8,431.3,667.8,431.2l-30.3,0.1c-1.6-5.9-3.5-9.2-11.1-16
		c0-0.2,0.1-0.3,0.1-0.5c0-12.6,3.6-27.8,7.5-40c0.3,0.4,0.6,0.9,1,1.3C647.2,392.3,667.5,419.5,667.8,431.2z M585,270
		c-1.6-0.1-8.2-0.5-8.2-0.5c-3.1-0.4-5.5-3.6-5.3-7.5c0.1-3.8,2.7-6.9,5.9-7c0,0,0,0,0.1,0c1-0.1,8.2,0.4,8.7,0.5l0,0l1,0.1
		c1.8,0.1,3.7,0.2,5.8,0.4c1.2,0.1,2.4,0.2,3.6,0.3l5.3,0.4l7.7,0.8c3.1,0.3,5.9,0.6,8.7,1.1c1.2,0.2,2.5,0.4,3.6,0.5
		c2.1,0.3,4.1,0.6,5.9,0.9l9.3,1.6c1.5,0.3,2.8,1.3,3.7,2.6c1,1.6,1.3,3.7,0.8,5.7c-0.8,3.4-3.6,6-6.3,6c-0.3,0-0.6,0-1-0.1
		l-8.7-1.5c-1.7-0.3-3.6-0.6-5.6-0.8c-1.1-0.2-2.3-0.3-3.4-0.5c-2.7-0.4-5.6-0.7-8.4-1l-6.9-0.7l-5.8-0.5c-1.2-0.1-2.4-0.2-3.5-0.3
		c-2-0.2-4-0.3-5.7-0.4L585,270z M454.3,222.1l-4.2-17.8c4.7-0.7,9.4-1.5,14-2.3c8.9-1.6,18.1-3.2,27.2-4l2.3,20.2
		c0.2,1.3,1.3,2.3,2.7,2.2c9.4-0.7,19-1.2,28.5-1.5c0.7,0,1.3-0.3,1.8-0.8s0.7-1.1,0.7-1.8l-1-23.6c7.1-0.2,14.3-0.3,21.3-0.3
		s14.2,0.1,21.3,0.3l-1,23.6c0,0.7,0.2,1.3,0.7,1.8s1.1,0.8,1.8,0.8c9.5,0.3,19,0.8,28.5,1.5c1.3,0.1,2.5-0.9,2.7-2.2l2.3-20.2
		c9.1,0.8,18.3,2.4,27.2,4c4.6,0.8,9.3,1.6,14,2.3l-4.2,17.8l-7.6,33.7l-4.2-0.7c-1.9-0.3-3.9-0.6-6-0.9c-1.2-0.2-2.4-0.3-3.6-0.5
		c-2.9-0.4-6-0.8-9-1.1L605,252l-7.7-0.7c-1.2-0.1-2.4-0.2-3.6-0.3c-2.1-0.2-4.2-0.4-6-0.4l-9.3-0.5c-0.1,0-0.2,0-0.3,0
		s-0.2,0-0.3,0c0,0-1-0.1-2.7-0.1l-6.7-0.2c-4.4-0.2-9.8-0.3-15.6-0.3l-5-0.1l-5,0.1c-5.8,0.1-11.2,0.1-15.6,0.3l-6.7,0.2
		c-1.7,0-2.6,0.1-2.6,0.1c-0.1,0-0.2,0-0.3,0s-0.3,0-0.4,0l-9.3,0.5c-1.9,0.1-3.9,0.3-6,0.4c-1.2,0.1-2.4,0.2-3.6,0.3l-5.5,0.4
		l-7.7,0.8c-3,0.3-6.1,0.7-8.9,1.1c-1.2,0.2-2.4,0.3-3.6,0.5c-2.2,0.3-4.2,0.6-6,0.9l-4.3,0.8L454.3,222.1z M568.3,269.3h-0.8
		c-4.2-0.2-9.4-0.2-14.9-0.3c-1.7,0-3.4,0-5.1-0.1c-1.7,0-3.4,0-5,0.1c-5.5,0.1-10.7,0.1-14.9,0.3h-0.8l0,0l-8.7,0.3l0,0
		c-3-0.1-5.6-3.2-5.9-6.9c-0.1-2.1,0.5-4.2,1.8-5.6c0.9-1,2-1.6,3.3-1.8c0,0,0.1,0,0.2,0c1.9-0.3,9.6-0.4,9.6-0.4l0,0h0.1
		c4.3-0.2,9.7-0.2,15.4-0.3l4.9-0.1l5,0.1c5.7,0.1,11.1,0.1,15.5,0.3h0.9c-1.4,2-2.3,4.5-2.4,7.2C566.3,264.7,567,267.2,568.3,269.3
		z M460.6,276c-3,0.6-6.3-2.1-7.2-5.9c-0.5-2-0.2-4.1,0.8-5.7c0.9-1.4,2.2-2.3,3.6-2.6l9.3-1.7c1.8-0.3,3.7-0.6,5.8-0.9
		c1.2-0.2,2.4-0.3,3.7-0.5c2.8-0.4,5.7-0.7,8.7-1.1l7.6-0.8l5.4-0.4c1.2-0.1,2.5-0.2,3.6-0.3c2.1-0.2,4.1-0.3,5.9-0.4l1-0.1
		c-1.3,2.2-1.9,4.8-1.7,7.4c0.2,2.7,1.1,5.1,2.6,7.1h-0.8c-1.8,0.1-3.7,0.2-5.7,0.4c-1.1,0.1-2.3,0.2-3.5,0.3l-5.2,0.4l-7.4,0.8
		c-2.8,0.3-5.7,0.6-8.4,1c-1.2,0.2-2.4,0.3-3.5,0.5c-2,0.3-3.9,0.5-5.6,0.8L460.6,276z M474,281c0.4-0.2,0.8-0.6,1-1l0.9-1.4
		c1.1-0.1,2.2-0.3,3.3-0.5c2.6-0.4,5.3-0.7,8.2-1l7.4-0.8l5.2-0.4c1.2-0.1,2.4-0.2,3.6-0.3c2-0.2,3.9-0.3,5.6-0.4l9-0.5
		c0.1,0,0.1,0,0.2,0c0.2,0,0.3,0,0.5,0c0,0,0.9-0.1,2.4-0.1l6.6-0.2c4.1-0.2,9.3-0.2,14.7-0.3c1.7,0,3.4,0,5-0.1
		c1.7,0,3.4,0,5.1,0.1c5.5,0.1,10.6,0.1,14.7,0.3l6.5,0.2c1.4,0,2.2,0.1,2.3,0.1h0.1c0.1,0,0.1,0,0.2,0c1,1.3,2.4,3.1,4.4,5.5
		c2,5.8,2.9,12.8,2.9,20.9c0,23.6-12.6,36.1-24.7,48.2c-11.8,11.7-22.9,22.8-22.9,42.7c0,11.4,9,19,17.4,19c3,0,5.7-1,7.8-2.9
		c0.3-0.3,0.5-0.7,0.5-1.1s-0.2-0.8-0.5-1.1c-1.9-1.8-3.9-4.1-5.1-10.4c5.2-2.4,11.2-3.1,17.1-3.7c7.4-0.8,14.3-1.6,18.8-5.7
		c15.6-14.4,17.1-26.5,18.4-36.2c0.6-4.8,1.2-9,3.3-12.7c1.7,3.3,3,6.5,4.4,9.9c2.7,6.6,5.5,13.5,11.9,22.4c-4,11.9-8,27.4-8.8,40.8
		c-7.1-3.5-15.1-5.2-24.2-5.2c-6.3,0-13.1,0.8-21.4,2.6c-17.3,3.7-35.8,18.4-52.1,31.4c-5.6,4.5-11,8.7-16.1,12.4l-0.1,0.1
		c-3.8,2.8-8.7,6.1-13.5,8.2l-7.6,2.3c-0.4,0-0.9,0.1-1.3,0.1c-0.6,0-1.1,0-1.6-0.1c-0.8-3-1.6-6-2.5-9c0-0.1,0-0.1-0.1-0.2
		c-1.6-5.6-3.3-11.2-5.1-16.5c0-0.1,0-0.1-0.1-0.2c-21.6-64.5-49.1-89.6-60.6-97.8c58.8-17.9,149.2-28.8,150.2-28.9
		c0.2,0,0.5-0.1,0.7-0.2c3.5-1.4,4.8-14.1,3.8-19.3c-1-5.5-4.3-8.6-9-8.6c-14,0-52.5,22.3-57.4,25.2c-5.7,0.8-50.4,7.3-67.9,11.6
		v-2.5C447.6,294.9,473.7,281.1,474,281z M623.7,431.3h-50.9c-0.6-0.8-1.3-1.6-2-2.4c9.2-6,18.1-9.1,25.7-9.1
		C607.3,419.8,616.4,423.6,623.7,431.3z M468.1,431.3h-31.7c4.1-8.1,10.7-18.1,19.5-29.4C460.1,410.5,464.2,420.3,468.1,431.3z
		 M440.1,300.2c-3.7,4-7.2,8.5-10,13.4c-0.2,0.4-0.4,0.9-0.4,1.4v6.1c-2.8,0.8-5.4,1.6-7.9,2.3c0.5-0.8,1-1.4,1.4-1.7
		c0.4-0.4,0.6-0.9,0.4-1.4c-0.1-0.5-0.5-0.9-1.1-1.1c-1.6-0.4-3.3-1-4.8-1.7c-2.3-1.1-4-2.2-4.8-3.1
		C419.4,308.9,429.4,304.2,440.1,300.2z M358.3,346.7c16-11.5,24.9-14.7,33.8-16.9c-4,4.8-9.1,12.5-9.1,27.4c0,4.9,1,9.3,3,13.6
		c-11.6,5.4-16.7,6.2-18.7,6.2c-5.8,0-11.7-3.3-17.3-6.6c-2.8-1.6-5.6-3.2-8.5-4.5c-0.7-0.3-1.4-0.6-2.3-0.8
		C347,356.3,353.3,350.3,358.3,346.7z M297.4,546.9c1.5-11.9,14-37.3,49.9-71.5c-1.1,1.2-2,2.4-2.7,3.6c-9.5,14.3-7.9,35.4-7.3,41.5
		c1.2,10.1,4.4,19.7,9.2,27c1.3,2,2.7,3.8,4.2,5.3c-3.1-0.4-6.1-2-9.4-3.6c-4.3-2.2-8.8-4.5-14.1-4.5c-5.2,0-8.2,0.6-11.5,1.2
		c-3.5,0.6-7.2,1.3-14.1,1.3C300.3,547.1,298.8,547,297.4,546.9z M357.5,551.3c-7-5.3-12.9-17.4-14.5-31.4
		c-2.5-22.2,4.2-34.5,6.3-37.7c1.7-2.6,4.5-5.5,8.2-9.3v77.4C357.5,550.6,357.5,550.9,357.5,551.3z M322.3,627.9
		c3.6,1.7,7,3.7,10.1,5.9c1,0.7,2,1.5,2.9,2.3c-0.1,0.4,0,0.9,0.1,1.3c1.8,5.4,2.7,12.7-3.2,17.4c-3.9,3.1-7.4,3.7-9.7,3.7
		c-2.2,0-4.3-0.6-5.7-1.7c1.2-1.3,2.4-2.8,3.4-4.6C324.4,645.2,326.3,635.5,322.3,627.9z M338.6,685.1c-2.9,1.6-6.1,2.7-9.5,3.4
		c-1.9,0.3-3.8,0.5-5.6,0.5l0,0c-5.6,0-11.1-1.5-15.9-4.4c-5.4-4.1-11.4-8.8-7.6-21.8c1.3-4.4,4.3-7.1,9.1-8.2c0.3,1.6,1,3.2,2,4.5
		c2.5,3.2,6.8,5,11.4,5c4.5,0,9.1-1.7,13.2-4.9c4.3-3.4,6.6-8.2,6.7-13.9c4.2,5.6,5.8,10.4,5.8,12.2c0,0.6,0,1.3,0.1,2.2
		C348.6,665.9,349.1,678.7,338.6,685.1z M327.7,580.7l-1.4-0.4c-4.1-1.2-5.5-1.7-5.9-3.8c7.6,0,17.3-0.3,21.9-4.6
		c2.2-2,3.9-4.5,5.7-7.1c1.8-2.6,3.9-5.6,6.7-8.4c0.9,0.6,1.8,1.1,2.7,1.6c0.1,19.8,0.7,41.6,3.6,64.9
		C355.2,597.5,334.1,582.7,327.7,580.7z M357.5,431.3v27.2c-43.5,37.8-62.3,68.6-65.5,85.9c-16.5-4.8-22.5-21.7-22.5-36.4
		c0-19.5,36.7-48.5,66.2-71.9c1.2-0.9,1.4-2.6,0.6-3.8c-0.8-1.2-2.5-1.6-3.8-0.9c-3.6,2.1-7.8,3.1-12.9,3.1c-4.3,0-8.6-0.7-12.5-1.4
		c-3.3-0.5-6.5-1.1-9.2-1.1c-4,0-6.7,1.1-9.5,2.3c-4.1,1.7-9.2,3.7-21.3,3.7c-12.4,0-27-9.5-38.8-17.2c-3.8-2.5-7.4-4.8-10.6-6.6
		c3.6-1.5,6.8-3.7,10.1-5.9c5.9-4,11.4-7.7,18.7-7.7h7.8c0.2,12.2,4.1,17.2,7.3,21.3c2.4,3,4.1,5.2,4.1,10.2c0,0.8,0.4,1.6,1,2.1
		s1.5,0.8,2.3,0.7c0.7-0.1,18-2.8,29.6-16.9c2.6-3.1,6.2-7.9,10.5-13.4c1.2-1.6,2.5-3.3,3.9-5c8.5,2.2,14.2,1.7,17.2-1.5
		c1.9-2,1.9-4.3,1.9-4.7c-0.1-1.3-1-2.3-2.2-2.6c0,0-4.6-1.1-8.4-5.6c-1.1-1.3-2-2.6-2.7-4.2c-2.6-5.3-3.3-9.8-3.4-12.4
		c4.3-0.1,13.1-0.1,19.8,1.3c1.7,0.4,3.1,0.8,4.3,1.3c2.6,1.1,5.2,2.6,8,4.2c6.3,3.6,12.8,7.3,20.1,7.3c4.2,0,11-2.1,20.2-6.3
		c1.9,2.8,3.9,5.1,5.8,7.2c2.5,2.8,4.7,5.3,5.4,7.7c0.4,1.3,1.7,2.2,3.1,2c1.3-0.2,2.2-1.2,2.4-2.5c0.8-1.5,5.8-5.7,9.4-8.7
		c8.7-7.3,14.9-12.8,16.6-17.5c7.1,7.6,13.9,16.6,20.3,26.9c0.9,1.6,1.7,3.2,2.6,4.9c-8.3,10.4-17.8,23.6-23,35h-72.9V431.3z
		 M315.3,394.2c1-1.3,2.1-2.7,3.1-4c2.2,2.2,4.5,3.7,6.4,4.6c-0.8,0.3-1.8,0.4-2.9,0.4C320.1,395.2,317.9,394.9,315.3,394.2z
		 M435.7,693.4c-1.4-2-2.9-4.2-2.9-6.8c-0.1-2.2-0.1-8.2,1.7-10.1c0.3-0.4,0.7-0.5,1.1-0.5c0.9,0,1.6,0.2,2,0.7
		c0.7,0.8,0.3,2.2,0.3,2.2l-0.2,0.9h0.9c1.5,0,2.8-1.9,2.9-4c0-1.2-0.5-5.1-7.5-5.6c0-0.1,0-0.2,0-0.3c0-4.1-1.4-7.8-3.4-9.2
		l-0.4-0.3l-0.4,0.3c-2,1.3-3.4,5-3.4,9.2c0,0.1,0,0.2,0,0.3c-7,0.5-7.5,4.4-7.5,5.6c0,2.1,1.4,4,2.9,4h0.9l-0.2-0.9
		c0,0-0.3-1.4,0.3-2.2c0.4-0.5,1-0.7,2-0.7c0.4,0,0.8,0.2,1.1,0.5c1.8,1.9,1.8,7.9,1.7,10.1c0,2.6-1.5,4.8-2.9,6.8
		c-1.1,1.6-2,2.9-2,4.2v0.4h-13.9v-49.2c0-2.3,1.8-5.9,4.2-8.2l1.1-0.9c1.6-1.1,2.9-1.1,3.6-0.2h71.9c0.7-0.5,1.4-0.7,2-0.7
		c0.9,0,1.9,0.6,1.9,2.3v48.8l-8.3,8.1h-13.5v-0.4c0-1.3-0.9-2.7-2-4.2c-1.4-2-2.9-4.2-2.9-6.8c-0.1-2.2-0.1-8.2,1.7-10.1
		c0.3-0.4,0.7-0.5,1.1-0.5c0.9,0,1.6,0.2,2,0.7c0.7,0.8,0.3,2.2,0.3,2.2l-0.2,0.9h0.9c1.5,0,2.8-1.9,2.9-4c0-1.2-0.5-5.1-7.5-5.6
		c0-0.1,0-0.2,0-0.3c0-4.1-1.4-7.8-3.4-9.2l-0.4-0.3l-0.4,0.3c-2,1.3-3.4,5-3.4,9.2c0,0.1,0,0.2,0,0.3c-7,0.5-7.5,4.4-7.5,5.6
		c0,2.1,1.4,4,2.9,4h0.9l-0.2-0.9c0,0-0.3-1.4,0.3-2.2c0.4-0.5,1-0.7,2-0.7c0.4,0,0.8,0.2,1.1,0.5c1.8,1.9,1.8,7.9,1.7,10.1
		c0,2.6-1.6,4.8-2.9,6.8c-1.1,1.6-2,2.9-2,4.2v0.4h-19v-0.4C437.7,696.3,436.8,695,435.7,693.4z M548.1,874.3
		c-45.4-27-82.3-58.8-110.1-94.7l110.1-120.1l110.1,120.1C630.4,815.5,593.5,847.4,548.1,874.3z M568.5,601.4
		c-1.4-2-2.9-4.2-2.9-6.8c-0.1-2.2-0.1-8.2,1.7-10.1c0.3-0.4,0.7-0.5,1.1-0.5c0.9,0,1.6,0.2,2,0.7c0.7,0.8,0.3,2.2,0.3,2.2l-0.2,0.9
		h0.9c1.5,0,2.8-1.9,2.9-4c0-1.2-0.5-5.1-7.5-5.6c0-0.1,0-0.2,0-0.3c0-4.2-1.3-7.8-3.4-9.2l-0.4-0.3l-0.4,0.3c-2,1.4-3.4,5-3.4,9.2
		c0,0.1,0,0.2,0,0.3c-7,0.5-7.5,4.4-7.5,5.6c0,2.1,1.4,4,2.9,4h0.9l-0.2-0.9c0,0-0.3-1.4,0.3-2.2c0.4-0.5,1-0.7,2-0.7
		c0.4,0,0.8,0.2,1.1,0.5c1.8,1.9,1.8,7.9,1.7,10.1c0,2.6-1.6,4.8-2.9,6.8c-1.1,1.6-2,2.9-2,4.2v0.4h-19v-0.4c0-1.3-0.9-2.7-2-4.2
		c-1.4-2-2.9-4.2-2.9-6.8c-0.1-2.2-0.1-8.2,1.7-10.1c0.3-0.4,0.7-0.5,1.1-0.5c0.9,0,1.6,0.2,2,0.7c0.7,0.8,0.3,2.2,0.3,2.2l-0.2,0.9
		h0.9c1.5,0,2.8-1.9,2.9-4c0-1.2-0.5-5.1-7.5-5.6c0-0.1,0-0.2,0-0.3c0-4.2-1.3-7.8-3.4-9.2l-0.4-0.3l-0.4,0.3
		c-2.1,1.4-3.4,5-3.4,9.2c0,0.1,0,0.2,0,0.3c-7,0.5-7.5,4.4-7.5,5.6c0,2.1,1.4,4,2.9,4h0.9l-0.2-0.9c0,0-0.3-1.4,0.3-2.2
		c0.4-0.5,1-0.7,2-0.7c0.4,0,0.8,0.2,1.1,0.5c1.8,1.9,1.8,7.9,1.7,10.1c0,2.6-1.5,4.8-2.9,6.8c-1.1,1.6-2,2.9-2,4.2v0.4h-13.9v-49.2
		c0-2.3,1.8-5.9,4.2-8.2l1.1-0.9c1.6-1.1,2.9-1.1,3.6-0.2h71.9c0.7-0.5,1.4-0.7,2-0.7c0.9,0,1.9,0.6,1.9,2.3v48.8L584,606h-13.5
		v-0.4C570.5,604.3,569.6,602.9,568.5,601.4z M691.2,690l-8.3,8.1h-13.5v-0.4c0-1.3-0.9-2.7-2-4.2c-1.4-2-2.9-4.2-2.9-6.8
		c-0.1-2.2-0.1-8.2,1.7-10.1c0.3-0.4,0.7-0.5,1.1-0.5c0.9,0,1.6,0.2,2,0.7c0.7,0.8,0.3,2.2,0.3,2.2l-0.2,0.9h0.9
		c1.5,0,2.8-1.9,2.9-4c0-1.2-0.5-5.1-7.5-5.6c0-0.1,0-0.2,0-0.3c0-4.1-1.4-7.8-3.4-9.2l-0.4-0.3l-0.4,0.3c-2,1.4-3.4,5-3.4,9.2
		c0,0.1,0,0.2,0,0.3c-7,0.5-7.5,4.4-7.5,5.6c0,2.1,1.4,4,2.9,4h0.9l-0.2-0.9c0,0-0.3-1.4,0.3-2.2c0.4-0.5,1-0.7,2-0.7
		c0.4,0,0.8,0.2,1.1,0.5c1.8,1.9,1.8,7.9,1.7,10.1c0,2.6-1.5,4.8-2.9,6.8c-1.1,1.6-2,2.9-2,4.2v0.4h-19v-0.4c0-1.3-0.9-2.7-2-4.2
		c-1.4-2-2.9-4.2-2.9-6.8c-0.1-2.2-0.1-8.2,1.7-10.1c0.3-0.4,0.7-0.5,1.1-0.5c0.9,0,1.6,0.2,2,0.7c0.7,0.8,0.3,2.2,0.3,2.2l-0.2,0.9
		h0.9c1.5,0,2.8-1.9,2.9-4c0-1.2-0.5-5.1-7.5-5.6c0-0.1,0-0.2,0-0.3c0-4.1-1.4-7.8-3.4-9.2l-0.4-0.3l-0.4,0.3c-2,1.3-3.4,5-3.4,9.2
		c0,0.1,0,0.2,0,0.3c-7,0.5-7.5,4.4-7.5,5.6c0,2.1,1.4,4,2.9,4h0.9l-0.2-0.9c0,0-0.3-1.4,0.3-2.2c0.4-0.5,1-0.7,2-0.7
		c0.4,0,0.8,0.2,1.1,0.5c1.8,1.9,1.8,7.9,1.7,10.1c0,2.6-1.5,4.8-2.9,6.8c-1.1,1.6-2,2.9-2,4.2v0.4h-13.9v-49.2
		c0-2.3,1.8-5.9,4.2-8.2l1.1-0.9c1.6-1.1,2.9-1.1,3.6-0.2h71.9c0.7-0.5,1.4-0.7,2-0.7c0.9,0,1.9,0.6,1.9,2.3L691.2,690L691.2,690z
		 M717.3,648L548.1,463.4L378.9,648c-7.1-36-7.7-69.1-7.7-97.7V444.9h90c-3.3,3.4-6.9,8.2-11.7,15.8l-0.8,1.3l55.8,29.3l0.7-0.8
		c0.3-0.3,23.3-26.6,44.4-45.5h117.3c-1.2,6.6-3.7,11.9-7.2,15.4c-2.1-1.7-4.5-3-6.8-4.3c-4.1-2.3-8-4.5-10.2-8.3
		c-0.4-0.7-1.1-1.2-1.8-1.3c-0.8-0.2-1.6,0-2.2,0.5c-4.6,3.4-7.6,6.6-9.4,9.5c0,0,0,0.1-0.1,0.1c0,0,0,0,0,0.1c-1.3,2.1-2,4-2.4,5.7
		c-0.4,1.8-0.4,3.5,0.1,5.1c0.1,0.3,0.2,0.6,0.3,0.9c0.1,0.2,0.2,0.5,0.4,0.8c1.6,3.2,5.2,6.3,10.7,9.9c5.2,3.4,13.8,5.6,22,5.6
		c13.6,0,23.9-5.9,29-16.3c2.1,20.1,8.6,79.8,30.6,94.5c0.2,0.2,0.5,0.2,0.8,0.2s0.5-0.1,0.8-0.2c1.2-0.7,2.4-1.5,3.6-2.2
		C724.8,586.8,723.5,616.2,717.3,648z M655.9,464.3c-5.2,5-10.8,7.5-14.2,7.5c-3.2,0-6.7-1.6-8.7-4c-0.2-0.4-0.4-0.8-0.6-1.2
		c-1.3-3.8,1.4-8.5,7.4-13.6c2.9,3.6,6.9,5.8,10.5,7.8C652.3,461.9,654.2,463,655.9,464.3z M684.9,347.5c4.3,0.3,7.6,1.6,11.3,3
		c5.3,2,11.2,4.3,21.4,4.3c6.6,0,14.1-3.3,22.9-10.2c8.5,5.5,16,10.7,22.2,15.4c-0.7,0.4-1.4,0.8-2.1,1.3c-7.4,4.4-15,9-24.1,9
		C708.4,370.4,689.7,355.4,684.9,347.5z M771.4,642.1c-6,0-10.4-3.8-13.3-7.7c1.7-2.3,4.3-4.8,7.8-7.5c2.1,5.3,4.8,11.5,9.7,15.2
		C774.4,642.1,773,642.1,771.4,642.1z M794.6,623.8c0,10.1-1.4,13.8-9.5,15.7c-7.5-0.2-10.7-6.7-14.3-15.9c-0.3-0.8-0.6-1.6-0.9-2.3
		c-0.3-0.8-0.6-1.5-1-2.2c4.8-0.2,8.5-1.7,11.8-3.1c1.1-0.5,2.2-0.9,3.3-1.3c0.7-0.2,1.3-0.4,2-0.6c1.6-0.4,2.9-0.5,4.2-0.4h0.3
		C793.2,613.9,794.6,620.4,794.6,623.8z M806.2,540.1c13.7-7,21.5-15.1,25.5-23.2c-1.4,14.2-7.2,30.9-17.2,48.8
		c-0.3,0.5-0.5,0.8-0.6,1.1c-2.5,4.6-5,10.2-7.4,15.6c-3.6,8-7.3,16.4-9.9,18.7c-1.7,1.6-6.6,4.4-11.9,7.3l-0.5,0.3
		c-0.3,0.1-0.5,0.1-0.8,0.2c-0.2,0.1-0.4,0.1-0.6,0.2c-0.3,0.1-0.7,0.2-1,0.3c-0.2,0.1-0.3,0.1-0.5,0.2c-0.3,0.1-0.7,0.3-1,0.4
		c-0.1,0.1-0.3,0.1-0.4,0.2c-0.1,0.1-0.3,0.1-0.4,0.2c-0.3,0.1-0.7,0.3-1,0.4c-3.3,1.4-6.5,2.7-10.5,2.7c-1.3,0-2.6-0.1-4-0.4
		c-1.2-0.3-2.5,0.4-3.1,1.5s-0.3,2.5,0.6,3.4c0.2,0.2,0.3,0.4,0.5,0.6c0,0.1,0.1,0.1,0.1,0.2c0.1,0.2,0.3,0.4,0.4,0.6
		c0,0.1,0.1,0.1,0.1,0.2c0.2,0.3,0.3,0.6,0.5,0.9c0,0.1,0.1,0.1,0.1,0.2c0.1,0.3,0.3,0.5,0.4,0.8c0,0,0,0.1,0.1,0.1
		c-3.2,2.3-5.8,4.6-7.8,6.7c-2.9-6-4.2-12.4-4.2-15.6c0-4.8,0-13.8,30-37c1.1-0.8,1.4-2.3,0.8-3.5c-0.5-1-1.5-1.6-2.6-1.6
		c-0.2,0-0.4,0-0.7,0.1c-2.2,0.5-4.3,0.8-6.3,0.8c-5.6,0-8.4-2-9.3-2.9c-0.7-0.7-1.7-1.9-2.9-3.4c-2.4-2.9-5.3-6.4-8.8-9.3
		c1.9-0.9,3.9-2.1,6.2-3.4c4-2.3,8.6-5,12.8-6.3c3.7-1.2,5.8-1.3,9.2-1.6c4.7-0.3,11-0.8,25.5-4.1
		C805.7,540.3,806,540.2,806.2,540.1z M780.6,498.5c3.5,4,6.7,7.5,9.6,10.6c10,10.9,15.5,16.9,15,25.1c-0.4,0.2-0.8,0.4-1.2,0.7
		c-13.8,3.1-19.9,3.6-24.3,3.9c-3.6,0.3-6.1,0.4-10.5,1.8c-4.7,1.5-9.6,4.3-13.9,6.8c-3.8,2.2-8.1,4.7-9.9,4.7
		c-1.3,0-2.5,0.9-2.8,2.3c-0.3,1.3,0.4,2.6,1.6,3.2c4.8,2.1,9.1,7.3,12.2,11.1c1.3,1.6,2.5,3,3.5,3.9c1.4,1.3,4.3,3.3,9,4.1
		c-13.1,7.1-26.9,19.3-32.6,35.4c2.1-22,2.4-42.6,2.4-61.2c9.8-8.5,16.5-19.3,16.5-36.3c0-15.5-7.8-32-14-45.3
		c-0.9-1.8-1.7-3.6-2.5-5.3v-6.4c8.1,9,14.3,14.5,20.4,19.8C765.7,483.1,771.9,488.6,780.6,498.5z M779.2,387.1
		c2.9-1.6,5-3.7,6.5-5.6c1.4,1.8,2.5,3.5,3.6,5.4C785.7,386.9,782.3,387,779.2,387.1z M872.2,359c-6.4,3.1-11.9,5.7-20.4,5.7
		c-11.1,0-27.4-5.4-27.6-5.5c-1.3-0.4-2.7,0.1-3.3,1.2c-0.7,1.2-0.5,2.6,0.5,3.5c9,8.3,15,17.4,17.4,26.6c-0.5-0.1-0.9-0.1-1.4-0.2
		c-22.2-2.8-36.3-3.4-41.7-3.5c-1.7-3.4-3.6-6.4-6-9.5c1.3-3,1.9-5.9,1.9-7.7c0-3.4,2-7.9,7.7-10.8c0.8-0.4,1.4-1.2,1.5-2.1
		s-0.2-1.9-0.9-2.5c-0.8-0.7-1.8-1.7-20.9-1.7c-4.4,0-8.6,1.7-12.2,3.6c-5.9-4.5-12.7-9.2-20.6-14.5c3.2-2.7,6.1-5.5,8.7-8
		c3.8-3.6,7.7-7.3,9.3-7.9c1.3-0.5,2-1.8,1.8-3.2c-0.2-1.3-1.4-2.3-2.8-2.3c-4.1,0-9.5-3.2-15.1-6.7c-8.1-4.9-17.2-10.4-27.9-10.4
		c-10.1,0-16.8,1.5-22.7,2.8c-4.7,1-8.7,1.9-13.7,1.9c-6.4,0-13.5-4-17.1-7.9c-1.2-1.3-1.7-2.3-1.9-2.9c2.8,0.9,8.7,2.2,22.1,2.2
		c30.4,0,53.2-26.9,53.2-50.9c0-15.3-10.9-30.9-20.1-41.4c-1.5-2.8-3.5-6.7-3.5-9.4c0-5.8,1.3-13.6,2.5-20.5
		c0.5-2.8,0.9-5.3,1.2-7.5c3.2,1.7,7.4,3.2,11.9,4.9c8.6,3.2,18.4,6.9,23.9,12c8.4,7.8,11.8,17.3,9.7,26.9l-0.1,0.6
		c-0.3,1.5,0.6,3,2.1,3.4s3-0.6,3.4-2.1l0.1-0.5c3.7-15.6,14.8-21,22.9-24.9c1.4-0.7,2.7-1.3,3.9-1.9c0.4,1.9,0.9,4,1.6,6.4
		c1.8,7.3,4.4,17.2,3,21.3c-2.5,7.5-8.1,17.9-14,23.3c-3.5,3.2-4.3,7.5-5.1,11.6c-0.9,4.9-1.9,10-7.1,14.7l-24.1,22.4
		c-1,1-1.2,2.5-0.4,3.7s2.3,1.6,3.6,1c6.2-2.9,12.5-5.7,19.2-8.6c24.7-10.6,50.2-21.6,67.5-43.3c9.6-12.1,15.3-28.2,15.3-42.9
		c18.7,9,29.2,24.8,30,36.5v0.1v0.1v0.2v0.1c0,0.3,0,0.7,0,1c0,33.3-17.3,60.3-101.1,83.8c-1.4,0.4-2.2,1.7-2,3.1s1.4,2.5,2.8,2.5
		c21.6,0,22.4,2.6,22.7,3.9c0.6,2,1.5,4.1,5.6,5c2,0.4,4,0.6,6.4,0.6c1.8,0,3.6-0.1,5.3-0.2s3.6-0.2,5.4-0.2c3.8,0,6.9,0.5,10,1.6
		c4.7,1.7,10.4,7,16,12.3C863.2,351.9,867.8,356.1,872.2,359C872.3,359,872.3,359,872.2,359z"/>
</g>
</svg>
